<svg width="8" height="14" viewBox="0 0 8 14" fill="none" xmlns="http://www.w3.org/2000/svg">
<path d="M0.737287 7.50949L6.62599 13.7147C6.88438 13.9864 7.30302 13.9864 7.56206 13.7147C7.82046 13.443 7.82046 13.0017 7.56206 12.73L2.14045 7.01719L7.56141 1.30434C7.8198 1.03265 7.8198 0.591368 7.56141 0.318997C7.30302 0.0473136 6.88373 0.0473136 6.62534 0.318997L0.736634 6.52415C0.482211 6.79302 0.482211 7.24124 0.737287 7.50949Z" fill="black"/>
<path d="M0.737287 7.50949L6.62599 13.7147C6.88438 13.9864 7.30302 13.9864 7.56206 13.7147C7.82046 13.443 7.82046 13.0017 7.56206 12.73L2.14045 7.01719L7.56141 1.30434C7.8198 1.03265 7.8198 0.591368 7.56141 0.318997C7.30302 0.0473136 6.88373 0.0473136 6.62534 0.318997L0.736634 6.52415C0.482211 6.79302 0.482211 7.24124 0.737287 7.50949Z" stroke="black"/>
</svg>
