<svg width="16" height="15" viewBox="0 0 16 15" fill="none" xmlns="http://www.w3.org/2000/svg">
<path d="M14.7706 0.729413C15.7431 1.70196 15.7431 3.27878 14.7706 4.25133L5.57307 13.4488C5.17412 13.8478 4.67424 14.1308 4.12688 14.2677L1.27416 14.9808C0.818185 15.0948 0.405162 14.6818 0.519156 14.2258L1.23234 11.3731C1.36918 10.8258 1.6522 10.3259 2.05116 9.92693L11.2487 0.729413C12.2212 -0.243138 13.798 -0.243138 14.7706 0.729413ZM10.3681 3.37072L2.93164 10.8074C2.69226 11.0468 2.52245 11.3467 2.44034 11.6751L1.97883 13.5212L3.82488 13.0597C4.15329 12.9776 4.45322 12.8077 4.69259 12.5684L12.1288 5.13141L10.3681 3.37072ZM12.1291 1.60989L11.2484 2.49037L13.0091 4.25106L13.8901 3.37085C14.3764 2.88457 14.3764 2.09617 13.8901 1.60989C13.4038 1.12362 12.6154 1.12362 12.1291 1.60989Z" fill="#2E3C7F"/>
</svg>
