<svg width="21" height="20" viewBox="0 0 21 20" fill="none" xmlns="http://www.w3.org/2000/svg">
<path d="M10.5 0C16.0228 0 20.5 4.47715 20.5 10C20.5 15.5228 16.0228 20 10.5 20C4.97715 20 0.5 15.5228 0.5 10C0.5 4.47715 4.97715 0 10.5 0ZM10.5 1.66667C5.89763 1.66667 2.16667 5.39763 2.16667 10C2.16667 14.6024 5.89763 18.3333 10.5 18.3333C15.1024 18.3333 18.8333 14.6024 18.8333 10C18.8333 5.39763 15.1024 1.66667 10.5 1.66667ZM10.5 14.1667C11.1904 14.1667 11.75 14.7263 11.75 15.4167C11.75 16.107 11.1904 16.6667 10.5 16.6667C9.80964 16.6667 9.25 16.107 9.25 15.4167C9.25 14.7263 9.80964 14.1667 10.5 14.1667ZM10.5 4.16667C12.3409 4.16667 13.8333 5.65905 13.8333 7.5C13.8333 8.71755 13.4804 9.39948 12.5767 10.3465L12.1366 10.7958C11.5075 11.4517 11.3333 11.8052 11.3333 12.5C11.3333 12.9602 10.9602 13.3333 10.5 13.3333C10.0398 13.3333 9.66667 12.9602 9.66667 12.5C9.66667 11.2824 10.0196 10.6005 10.9233 9.65349L11.3634 9.20424C11.9925 8.5483 12.1667 8.19483 12.1667 7.5C12.1667 6.57952 11.4205 5.83333 10.5 5.83333C9.57952 5.83333 8.83333 6.57952 8.83333 7.5C8.83333 7.96024 8.46024 8.33333 8 8.33333C7.53976 8.33333 7.16667 7.96024 7.16667 7.5C7.16667 5.65905 8.65905 4.16667 10.5 4.16667Z" fill="#5659FD"/>
</svg>
