<svg width="21" height="15" viewBox="0 0 21 15" fill="none" xmlns="http://www.w3.org/2000/svg">
<path d="M18.119 0H2.88095C2.24971 0.000897789 1.64454 0.3051 1.19818 0.845876C0.751829 1.38665 0.500741 2.11984 0.5 2.88462V12.1154C0.500741 12.8802 0.751829 13.6133 1.19818 14.1541C1.64454 14.6949 2.24971 14.9991 2.88095 15H18.119C18.7503 14.9992 19.3555 14.695 19.8019 14.1542C20.2483 13.6134 20.4993 12.8802 20.5 12.1154V2.88462C20.4993 2.11981 20.2483 1.38657 19.8019 0.845772C19.3555 0.304975 18.7503 0.000803304 18.119 0ZM10.0238 13.8462H2.88095C2.5022 13.8457 2.13908 13.6631 1.87126 13.3387C1.60344 13.0142 1.45279 12.5743 1.45238 12.1154V2.88462C1.45279 2.42574 1.60344 1.9858 1.87126 1.66133C2.13908 1.33686 2.5022 1.15435 2.88095 1.15385H10.0238V13.8462ZM19.5476 12.1154C19.5472 12.5743 19.3966 13.0142 19.1287 13.3387C18.8609 13.6631 18.4978 13.8457 18.119 13.8462H10.9762V1.15385H18.119C18.4978 1.15435 18.8609 1.33686 19.1287 1.66133C19.3966 1.9858 19.5472 2.42574 19.5476 2.88462V12.1154ZM3.68267 11.5086C3.74195 11.5329 3.80461 11.5427 3.86704 11.5375C3.92947 11.5322 3.99043 11.5121 4.04641 11.4782C4.10239 11.4443 4.15228 11.3974 4.1932 11.34C4.23413 11.2827 4.26529 11.2161 4.28488 11.1441L4.81135 9.23077H6.66484L7.19131 11.1441C7.21094 11.2162 7.24211 11.2828 7.28305 11.3403C7.32399 11.3978 7.37389 11.4449 7.42989 11.4789C7.48588 11.5129 7.54688 11.5333 7.60937 11.5387C7.67186 11.5441 7.73462 11.5345 7.79405 11.5105C7.85348 11.4865 7.90841 11.4485 7.95569 11.3987C8.00297 11.3489 8.04168 11.2883 8.06958 11.2203C8.09748 11.1523 8.11404 11.0784 8.1183 11.0026C8.12256 10.9269 8.11444 10.8509 8.0944 10.779L6.18964 3.85592C6.15041 3.75064 6.08694 3.66131 6.00685 3.59865C5.92675 3.53599 5.83344 3.50266 5.7381 3.50266C5.64275 3.50266 5.54944 3.53599 5.46934 3.59865C5.38925 3.66131 5.32578 3.75064 5.28655 3.85592L3.38179 10.779C3.36197 10.8508 3.35404 10.9267 3.35843 11.0023C3.36283 11.0778 3.37948 11.1516 3.40742 11.2193C3.43536 11.2871 3.47405 11.3475 3.52128 11.3972C3.56851 11.4468 3.62335 11.4847 3.68267 11.5086ZM5.7381 5.86275L6.34734 8.07692H5.12885L5.7381 5.86275ZM17.1667 6.92308H15.7644C15.8684 7.83003 16.2138 8.67112 16.7481 9.31866C16.9974 9.69727 17.2736 10.1164 17.5629 10.6415C17.5983 10.7045 17.6231 10.7755 17.6358 10.8501C17.6485 10.9248 17.6489 11.0018 17.6368 11.0767C17.6248 11.1516 17.6006 11.2228 17.5658 11.2863C17.5309 11.3497 17.4859 11.4042 17.4336 11.4465C17.3812 11.4888 17.3224 11.5181 17.2606 11.5327C17.1988 11.5473 17.1353 11.547 17.0736 11.5316C17.012 11.5163 16.9534 11.4863 16.9014 11.4433C16.8494 11.4004 16.8049 11.3454 16.7705 11.2815C16.4989 10.788 16.2385 10.3948 16.0041 10.0392C15.7285 9.6432 15.4803 9.22036 15.2619 8.775C15.0435 9.22036 14.7953 9.64321 14.5197 10.0393C14.2853 10.3948 14.0249 10.788 13.7534 11.2816C13.719 11.3455 13.6745 11.4004 13.6225 11.4434C13.5704 11.4863 13.5119 11.5163 13.4502 11.5316C13.3886 11.547 13.325 11.5474 13.2632 11.5327C13.2014 11.5181 13.1427 11.4888 13.0903 11.4465C13.0379 11.4042 12.993 11.3498 12.9581 11.2863C12.9232 11.2228 12.899 11.1516 12.887 11.0767C12.875 11.0019 12.8753 10.9249 12.888 10.8502C12.9007 10.7755 12.9255 10.7046 12.961 10.6416C13.2502 10.1165 13.5264 9.69729 13.7757 9.31868C14.3101 8.67113 14.6554 7.83003 14.7594 6.92308H13.3571C13.2308 6.92308 13.1097 6.86229 13.0204 6.7541C12.9311 6.64591 12.881 6.49916 12.881 6.34615C12.881 6.19314 12.9311 6.0464 13.0204 5.93821C13.1097 5.83001 13.2308 5.76923 13.3571 5.76923H14.7857V4.03846C14.7857 3.88545 14.8359 3.73871 14.9252 3.63051C15.0145 3.52232 15.1356 3.46154 15.2619 3.46154C15.3882 3.46154 15.5093 3.52232 15.5986 3.63051C15.6879 3.73871 15.7381 3.88545 15.7381 4.03846V5.76923H17.1667C17.293 5.76923 17.4141 5.83001 17.5034 5.93821C17.5927 6.0464 17.6429 6.19314 17.6429 6.34615C17.6429 6.49916 17.5927 6.64591 17.5034 6.7541C17.4141 6.86229 17.293 6.92308 17.1667 6.92308Z" fill="#5659FD"/>
</svg>
