<svg width="8" height="15" viewBox="0 0 8 15" fill="none" xmlns="http://www.w3.org/2000/svg">
<path d="M1.50176 14.0292C1.26811 14.0297 1.04167 13.9483 0.86176 13.7992C0.760501 13.7153 0.6768 13.6122 0.615448 13.4958C0.554096 13.3795 0.516299 13.2522 0.504223 13.1212C0.492148 12.9902 0.50603 12.8582 0.545074 12.7326C0.584119 12.607 0.647558 12.4903 0.73176 12.3892L5.21176 7.02924L0.89176 1.65924C0.808694 1.55695 0.746663 1.43925 0.709231 1.31291C0.671799 1.18657 0.659705 1.05408 0.673645 0.923055C0.687584 0.792027 0.727281 0.665045 0.790454 0.549408C0.853628 0.433772 0.939033 0.33176 1.04176 0.249237C1.14523 0.158201 1.26639 0.0895333 1.39765 0.0475443C1.52892 0.00555526 1.66744 -0.00884844 1.80453 0.00523645C1.94163 0.0193213 2.07433 0.0615911 2.19431 0.129393C2.31429 0.197195 2.41897 0.289065 2.50176 0.399237L7.33176 6.39924C7.47884 6.57817 7.55925 6.80261 7.55925 7.03424C7.55925 7.26586 7.47884 7.4903 7.33176 7.66924L2.33176 13.6692C2.23144 13.7903 2.10401 13.8859 1.9598 13.9485C1.81559 14.011 1.65867 14.0387 1.50176 14.0292Z" fill="black"/>
</svg>
