<svg width="21" height="20" viewBox="0 0 21 20" fill="none" xmlns="http://www.w3.org/2000/svg">
<path d="M15.449 13.0301L16.4591 14.0402L20.4997 9.99961L16.4591 5.95898L15.4489 6.96916L17.7651 9.28532H7.64258V10.7139H17.7651L15.449 13.0301Z" fill="#5659FD"/>
<path d="M16.5487 16.061C14.9299 17.6799 12.7776 18.5714 10.4882 18.5714C8.19862 18.5714 6.04598 17.6799 4.42696 16.0609C2.8079 14.442 1.92857 12.2895 1.92857 10C1.92857 7.71067 2.8079 5.55826 4.42701 3.93924C6.04607 2.32022 8.19866 1.42857 10.4882 1.42857C12.7775 1.42857 14.9298 2.32022 16.5487 3.9392C16.661 4.05171 16.7701 4.16726 16.8761 4.28571H18.6944C16.8875 1.69518 13.886 0 10.4882 0C4.96522 0 0.5 4.47759 0.5 10C0.5 15.523 4.96522 20 10.4882 20C13.8861 20 16.8878 18.3049 18.6946 15.7143H16.8762C16.7703 15.8328 16.661 15.9484 16.5487 16.061Z" fill="#5659FD"/>
</svg>
