<svg width="21" height="20" viewBox="0 0 21 20" fill="none" xmlns="http://www.w3.org/2000/svg">
<path fill-rule="evenodd" clip-rule="evenodd" d="M10.5 12.0043C14.285 12.0043 17.458 14.2183 18.284 18.0043H2.716C3.542 14.2183 6.715 12.0043 10.5 12.0043ZM6.5 6.00432C6.5 3.79832 8.294 2.00432 10.5 2.00432C12.706 2.00432 14.5 3.79832 14.5 6.00432C14.5 8.21032 12.706 10.0043 10.5 10.0043C8.294 10.0043 6.5 8.21032 6.5 6.00432ZM14.258 10.6773C14.9582 10.1163 15.5232 9.40513 15.9113 8.59624C16.2994 7.78735 16.5006 6.90149 16.5 6.00432C16.5007 4.98987 16.2442 3.99185 15.7545 3.10344C15.2647 2.21504 14.5577 1.46521 13.6996 0.924245C12.8414 0.383277 11.8601 0.0687815 10.8473 0.0100603C9.83457 -0.0486609 8.82346 0.150392 7.90851 0.588552C6.99356 1.02671 6.20465 1.6897 5.61551 2.51555C5.02637 3.3414 4.65622 4.3031 4.5397 5.31084C4.42319 6.31858 4.56408 7.33938 4.94922 8.27788C5.33436 9.21638 5.95118 10.0419 6.742 10.6773C3.083 12.0523 0.5 15.4493 0.5 20.0043H20.5C20.5 15.4493 17.917 12.0523 14.258 10.6773Z" fill="#5659FD"/>
</svg>
