<svg width="21" height="21" viewBox="0 0 21 21" fill="none" xmlns="http://www.w3.org/2000/svg">
<path d="M16.9339 0.697492L16.9347 0.792155C16.3234 0.942956 15.7831 1.27949 15.3992 1.7486C15.0153 2.21771 14.8096 2.79264 14.8147 3.38257C14.8198 3.9725 15.0354 4.54379 15.4273 5.00619C15.8193 5.46859 16.3653 5.79575 16.9792 5.93596L17.0952 19.3635C17.0967 19.5403 17.1734 19.7092 17.3085 19.833C17.4435 19.9569 17.6258 20.0256 17.8152 20.0239C18.0047 20.0223 18.1858 19.9505 18.3187 19.8243C18.4515 19.6981 18.5253 19.5279 18.5238 19.3511L18.4078 5.92362C19.0191 5.77282 19.5594 5.43628 19.9433 4.96718C20.3273 4.49807 20.5329 3.92314 20.5278 3.33321C20.5227 2.74328 20.3072 2.17199 19.9152 1.70958C19.5232 1.24718 18.9772 0.920029 18.3633 0.779813L18.3625 0.68515C18.361 0.508345 18.2843 0.339432 18.1492 0.21557C18.0142 0.0917078 17.8319 0.0230422 17.6425 0.0246789C17.453 0.0263156 17.2719 0.0981205 17.1391 0.224297C17.0062 0.350474 16.9324 0.520687 16.9339 0.697492ZM19.0999 3.34555C19.1022 3.60924 19.0206 3.86774 18.8655 4.08836C18.7104 4.30897 18.4888 4.48179 18.2286 4.58496C17.9684 4.68813 17.6814 4.71701 17.4039 4.66796C17.1263 4.61891 16.8706 4.49413 16.6692 4.30939C16.4678 4.12465 16.3297 3.88826 16.2723 3.6301C16.215 3.37195 16.241 3.10363 16.347 2.85907C16.453 2.61451 16.6343 2.40469 16.868 2.25616C17.1017 2.10763 17.3772 2.02705 17.6597 2.0246C18.0386 2.02133 18.4032 2.15866 18.6733 2.40639C18.9434 2.65411 19.0968 2.99194 19.0999 3.34555ZM11.3807 19.4128L11.3799 19.3182C11.9912 19.1674 12.5315 18.8308 12.9155 18.3617C13.2994 17.8926 13.505 17.3177 13.4999 16.7278C13.4948 16.1378 13.2793 15.5665 12.8873 15.1041C12.4953 14.6417 11.9493 14.3146 11.3355 14.1744L11.2195 0.746861C11.2179 0.570057 11.1412 0.401144 11.0062 0.277282C10.8711 0.15342 10.6888 0.0847539 10.4994 0.0863906C10.31 0.0880273 10.1289 0.159832 9.99599 0.286009C9.86311 0.412186 9.78932 0.582399 9.79085 0.759204L9.90686 14.1867C9.29553 14.3375 8.75523 14.674 8.37131 15.1431C7.98738 15.6123 7.78172 16.1872 7.78682 16.7771C7.79192 17.367 8.00748 17.9383 8.39945 18.4007C8.79142 18.8631 9.33746 19.1903 9.95129 19.3305L9.95211 19.4252C9.95364 19.602 10.0304 19.7709 10.1654 19.8948C10.3004 20.0186 10.4827 20.0873 10.6722 20.0856C10.8616 20.084 11.0427 20.0122 11.1756 19.886C11.3085 19.7598 11.3823 19.5896 11.3807 19.4128ZM9.21477 16.7648C9.21249 16.5011 9.29405 16.2426 9.44913 16.022C9.60422 15.8014 9.82586 15.6285 10.086 15.5254C10.3462 15.4222 10.6332 15.3933 10.9108 15.4424C11.1884 15.4914 11.444 15.6162 11.6454 15.8009C11.8468 15.9857 11.9849 16.2221 12.0423 16.4802C12.0997 16.7384 12.0737 17.0067 11.9677 17.2513C11.8616 17.4958 11.6803 17.7056 11.4467 17.8542C11.213 18.0027 10.9375 18.0833 10.6549 18.0857C10.276 18.089 9.91142 17.9517 9.64134 17.7039C9.37127 17.4562 9.21782 17.1184 9.21477 16.7648ZM4.23766 19.4745L4.17925 12.7135C4.79057 12.5627 5.33087 12.2261 5.71479 11.757C6.09872 11.2879 6.30437 10.713 6.29928 10.1231C6.29418 9.53312 6.07862 8.96183 5.68665 8.49943C5.29468 8.03702 4.74864 7.70987 4.13481 7.56965L4.07639 0.808573C4.07487 0.631769 3.99815 0.462856 3.86311 0.338994C3.72807 0.215131 3.54577 0.146466 3.35633 0.148102C3.16688 0.149739 2.9858 0.221544 2.85292 0.347721C2.72005 0.473898 2.64625 0.644111 2.64778 0.820915L2.70619 7.582C2.09487 7.7328 1.55457 8.06934 1.17065 8.53844C0.786723 9.00755 0.581064 9.58248 0.58616 10.1724C0.591257 10.7623 0.806819 11.3336 1.19879 11.796C1.59076 12.2584 2.1368 12.5856 2.75063 12.7258L2.80904 19.4869C2.81057 19.6637 2.88729 19.8326 3.02233 19.9565C3.15737 20.0803 3.33966 20.149 3.52911 20.1474C3.71856 20.1457 3.89964 20.0739 4.03252 19.9477C4.16539 19.8216 4.23918 19.6513 4.23766 19.4745ZM2.01411 10.1601C2.01183 9.89637 2.09339 9.63787 2.24847 9.41726C2.40355 9.19665 2.6252 9.02383 2.88537 8.92066C3.14554 8.81749 3.43256 8.78861 3.71013 8.83766C3.9877 8.88671 4.24335 9.01149 4.44476 9.19623C4.64616 9.38097 4.78428 9.61736 4.84164 9.87551C4.89899 10.1337 4.87302 10.402 4.76699 10.6466C4.66097 10.8911 4.47966 11.1009 4.24599 11.2495C4.01232 11.398 3.73679 11.4786 3.45424 11.481C3.07535 11.4843 2.71076 11.347 2.44068 11.0992C2.17061 10.8515 2.01716 10.5137 2.01411 10.1601Z" fill="#5659FD"/>
</svg>
