<svg width="21" height="21" viewBox="0 0 21 21" fill="none" xmlns="http://www.w3.org/2000/svg">
<path fill-rule="evenodd" clip-rule="evenodd" d="M19.0281 6.34554L18.4057 5.26545C17.8791 4.35153 16.7121 4.03624 15.797 4.56064C15.3613 4.81727 14.8415 4.89008 14.3521 4.76301C13.8628 4.63594 13.444 4.31944 13.1883 3.8833C13.0237 3.60607 12.9353 3.29032 12.932 2.96796C12.9468 2.45115 12.7518 1.95033 12.3915 1.57959C12.0311 1.20886 11.536 0.999787 11.0189 1H9.76493C9.2584 1 8.77275 1.20184 8.41544 1.56087C8.05812 1.9199 7.85861 2.40652 7.86105 2.91304C7.84603 3.95885 6.99392 4.79874 5.948 4.79863C5.62565 4.79528 5.30989 4.70687 5.03267 4.54233C4.1175 4.01794 2.95055 4.33322 2.42397 5.24714L1.75578 6.34554C1.22985 7.25832 1.54084 8.42453 2.45143 8.95423C3.04334 9.29596 3.40797 9.92752 3.40797 10.611C3.40797 11.2945 3.04334 11.926 2.45143 12.2677C1.54199 12.7939 1.23066 13.9573 1.75578 14.8673L2.38736 15.9565C2.63408 16.4017 3.04804 16.7302 3.53763 16.8694C4.02722 17.0085 4.55208 16.9468 4.99606 16.6979C5.43252 16.4433 5.95262 16.3735 6.44078 16.5041C6.92893 16.6348 7.34467 16.955 7.5956 17.3936C7.76013 17.6708 7.84854 17.9866 7.85189 18.3089C7.85189 19.3655 8.70839 20.222 9.76493 20.222H11.0189C12.0719 20.222 12.9269 19.371 12.932 18.3181C12.9295 17.81 13.1303 17.3219 13.4896 16.9626C13.8489 16.6034 14.3369 16.4026 14.845 16.405C15.1666 16.4136 15.4811 16.5017 15.7604 16.6613C16.6731 17.1873 17.8393 16.8763 18.3691 15.9657L19.0281 14.8673C19.2832 14.4294 19.3532 13.9079 19.2226 13.4183C19.0921 12.9287 18.7717 12.5113 18.3324 12.2586C17.8932 12.0059 17.5728 11.5885 17.4422 11.0989C17.3117 10.6092 17.3817 10.0877 17.6368 9.64989C17.8027 9.36026 18.0428 9.12012 18.3324 8.95423C19.2376 8.42482 19.5478 7.26542 19.0281 6.35469V6.34554Z" stroke="#5659FD" stroke-width="1.5" stroke-linecap="round" stroke-linejoin="round"/>
<path d="M10.3967 13.2466C11.8526 13.2466 13.0327 12.0664 13.0327 10.6106C13.0327 9.15479 11.8526 7.97461 10.3967 7.97461C8.94092 7.97461 7.76074 9.15479 7.76074 10.6106C7.76074 12.0664 8.94092 13.2466 10.3967 13.2466Z" stroke="#5659FD" stroke-width="1.5" stroke-linecap="round" stroke-linejoin="round"/>
</svg>
